<svg id="Layer_1" data-name="Layer 1" xmlns="http://www.w3.org/2000/svg" xmlns:xlink="http://www.w3.org/1999/xlink" viewBox="0 0 542.74 394.72"><defs><style>.cls-1,.cls-4{fill:none;}.cls-11,.cls-13,.cls-15,.cls-17,.cls-19,.cls-2,.cls-21,.cls-23,.cls-25,.cls-27,.cls-29,.cls-32,.cls-7,.cls-9{fill:#fff;}.cls-3{fill:#bd8b32;}.cls-4{stroke:#fff;stroke-linecap:round;stroke-linejoin:round;stroke-width:5px;}.cls-5{clip-path:url(#clip-path);}.cls-11,.cls-13,.cls-15,.cls-17,.cls-19,.cls-21,.cls-23,.cls-25,.cls-27,.cls-29,.cls-32,.cls-6,.cls-7,.cls-9{isolation:isolate;}.cls-7{font-size:34.68px;}.cls-11,.cls-13,.cls-15,.cls-17,.cls-19,.cls-21,.cls-23,.cls-25,.cls-27,.cls-29,.cls-32,.cls-7,.cls-9{font-family:ArialMT, Arial;}.cls-8{clip-path:url(#clip-path-2);}.cls-9{font-size:34.68px;}.cls-10{clip-path:url(#clip-path-3);}.cls-11{font-size:34.68px;letter-spacing:-0.06em;}.cls-12{clip-path:url(#clip-path-4);}.cls-13{font-size:54.49px;}.cls-14{clip-path:url(#clip-path-5);}.cls-15{font-size:54.49px;}.cls-16{clip-path:url(#clip-path-6);}.cls-17{font-size:54.49px;letter-spacing:-0.02em;}.cls-18{clip-path:url(#clip-path-7);}.cls-19{font-size:54.49px;}.cls-20{clip-path:url(#clip-path-8);}.cls-21{font-size:54.49px;}.cls-22{clip-path:url(#clip-path-9);}.cls-23{font-size:54.49px;}.cls-24{clip-path:url(#clip-path-10);}.cls-25{font-size:54.49px;}.cls-26{clip-path:url(#clip-path-11);}.cls-27{font-size:54.49px;}.cls-28{clip-path:url(#clip-path-12);}.cls-29{font-size:54.49px;}.cls-30{clip-path:url(#clip-path-13);}.cls-31{clip-path:url(#clip-path-14);}.cls-32{font-size:54.49px;}</style><clipPath id="clip-path"><rect class="cls-1" x="217.56" y="326.2" width="44.93" height="25.76" transform="matrix(0.26, -0.97, 0.97, 0.26, -149.62, 483.18)"/></clipPath><clipPath id="clip-path-2"><rect class="cls-1" x="263.73" y="321.04" width="21.6" height="44.93"/></clipPath><clipPath id="clip-path-3"><rect class="cls-1" x="295.37" y="315.98" width="25.21" height="44.93" transform="translate(-93.32 118.55) rotate(-18.98)"/></clipPath><clipPath id="clip-path-4"><rect class="cls-1" x="94.27" y="211.29" width="68.36" height="37.45" transform="translate(-37.19 25.15) rotate(-9.78)"/></clipPath><clipPath id="clip-path-5"><rect class="cls-1" x="118.31" y="111.01" width="34.83" height="68.36" transform="translate(-44.75 228.45) rotate(-71.69)"/></clipPath><clipPath id="clip-path-6"><rect class="cls-1" x="139.65" y="76.85" width="30.86" height="68.36" transform="translate(-26.87 168.23) rotate(-53.05)"/></clipPath><clipPath id="clip-path-7"><rect class="cls-1" x="200.35" y="27.28" width="35.42" height="68.36" transform="translate(-1.52 117.26) rotate(-30)"/></clipPath><clipPath id="clip-path-8"><rect class="cls-1" x="259.97" y="19.64" width="32.74" height="68.36"/></clipPath><clipPath id="clip-path-9"><rect class="cls-1" x="291.5" y="40.91" width="68.36" height="46.52" transform="translate(145.56 342.99) rotate(-68.28)"/></clipPath><clipPath id="clip-path-10"><rect class="cls-1" x="328.54" y="73.12" width="68.36" height="26.35" transform="translate(45.22 281.76) rotate(-45)"/></clipPath><clipPath id="clip-path-11"><rect class="cls-1" x="354.29" y="100.89" width="68.36" height="26.35" transform="translate(0.13 228.59) rotate(-32.79)"/></clipPath><clipPath id="clip-path-12"><rect class="cls-1" x="374.37" y="136.74" width="68.36" height="31.8" transform="translate(-24.78 103.3) rotate(-13.99)"/></clipPath><clipPath id="clip-path-13"><rect class="cls-1" x="382.28" y="176.43" width="68.36" height="31.8"/></clipPath><clipPath id="clip-path-14"><rect class="cls-1" x="394.89" y="201.28" width="31.61" height="68.36" transform="translate(46.28 537.65) rotate(-69.49)"/></clipPath></defs><g id="Layer2_0_FILL" data-name="Layer2 0 FILL"><path class="cls-2" d="M342.25,168.41q15.15,1.46,13.13-11.89-35.43-39.86-83.67-9.41-21.88-16.8-79.41-12.73-7.41,3.17-6.69,8.27v112.4q1.29,7,6.49,7.18h50.29q19.23-1.92,30.71-10.65,44.64,26.85,82.48-9.9Q359,227.49,343,228.55q-26.25,28.14-59.35,8.22,23.2-34.47,0-76.78,35.23-17.85,58.65,8.42M204,152.75h30.52q17.81.92,23.78,7.24-26.12,42.3,0,76.78-2.19,6.63-18.73,7.13H204Z"/></g><g id="Layer2_1_FILL" data-name="Layer2 1 FILL"><path class="cls-3" d="M193,317.92l-3.17-10.26-3.22,10.26h-10.6l8.42,6.24-3.76,10.6,9-6.69.1.05,8.52,6.24-3.27-10,9-6.44H193m-37.5-48.6-3.22,10.25h-10.6l8.42,6.24-3.76,10.61,9-6.69.1,0L164,296l-3.27-10,9-6.44H158.71l-3.17-10.25M352,307.66l-3.22,10.26h-10.6l8.42,6.24-3.76,10.6,9-6.69.1.05,8.52,6.24-3.27-10,9-6.44H355.13L352,307.66m34.68-38.34-3.27,10.25H372.82l8.37,6.19-3.71,10.66,9-6.69.05,0,.05,0,8.52,6.29-3.27-10,9-6.44h-11Z"/></g><path id="Layer2_1_1_STROKES" data-name="Layer2 1 1 STROKES" class="cls-4" d="M446.19,195.26q0,73.37-51.87,125.23T269.09,372.36q-73.42,0-125.29-51.87T91.94,195.26q0-73.42,51.86-125.28T269.09,18.11q73.37,0,125.23,51.87T446.19,195.26Zm-61.68,3.52q0,47.06-33.24,80.3T271,312.32q-47.07,0-80.3-33.24t-33.29-80.3q0-47.07,33.29-80.31T271,85.23q47,0,80.3,33.24T384.51,198.78Z"/><g id="Layer1_0_FILL" data-name="Layer1 0 FILL"><path class="cls-2" d="M270.52,172.47q-6.54,0-11.19,7.63t-4.61,18.53q0,10.85,4.61,18.47t11.19,7.68q6.54,0,11.15-7.68t4.66-18.47q0-10.86-4.66-18.53t-11.15-7.63M264,176.38v.05q8.79-.56,4.76,25.17-3.42,12.61,1.78,21.94-5.89,0-10.1-7.28t-4.21-17.63q0-10.31,4.21-17.64a19.51,19.51,0,0,1,3.56-4.61m5.5-2.62c.35,0,.7,0,1,0,4,0,7.33,2.43,10.11,7.28s4.21,10.77,4.21,17.64-1.4,12.78-4.21,17.63a18.41,18.41,0,0,1-3.72,4.76l-.49,0q-9.74.94-3.62-21.65Q277.43,180.36,269.48,173.76Z"/><path class="cls-3" d="M270.52,173.71c-.34,0-.69,0-1,0q7.95,6.6,3.32,25.66-6.12,22.59,3.62,21.65l.49,0a18.41,18.41,0,0,0,3.72-4.76q4.22-7.27,4.21-17.63T280.63,181c-2.78-4.85-6.14-7.28-10.11-7.28M264,176.43v-.05a19.51,19.51,0,0,0-3.56,4.61q-4.21,7.33-4.21,17.64t4.21,17.63q4.2,7.29,10.1,7.28-5.19-9.31-1.78-21.94Q272.77,175.88,264,176.43Z"/></g><g id="Layer0_0_FILL" data-name="Layer0 0 FILL"><path class="cls-2" d="M123.74,185.7l-.2,2-1.29,9.61,22.1,2.58,2.38-21.5-4.71-.55-1.88,16.45L128,192.88l.1-1.49a.2.2,0,0,1,0-.14l.05-.65,1.09-9.81v-.29l-4.76-.6-.74,5.8m55.53-104c-.51.4-1,.8-1.53,1.18l-7.68,5.9,3.12,4.11h-.05l10.7,13.43,16.94-13.53-3-3.76-12.93,10.3-7.68-9.66,1.14-.89.1-.1.5-.4q3.85-3.12,7.72-6.19l.25-.2-3-3.76Z"/><path class="cls-3" d="M108.88,173.71l-2.78,21.5,4,.49a3.56,3.56,0,0,1,.79.1h.4l1.19-10.6a.21.21,0,0,0,0-.15l0-.64q.55-4.91,1.09-9.81l.05-.35-4.8-.54M180,66.71l.24-.2-3-3.77L160.05,75.92l2.53,3.17.49.64.25.3,8.32-6.64a.56.56,0,0,0,.15-.1l.5-.39Q176.15,69.79,180,66.71Z"/></g><g class="cls-5"><g class="cls-6"><text class="cls-7" transform="translate(226.54 348.06) rotate(15)">U</text></g></g><g class="cls-8"><g class="cls-6"><text class="cls-9" transform="translate(265.91 355.66)">S</text></g></g><g class="cls-10"><g class="cls-6"><text class="cls-11" transform="translate(302.07 353.34) rotate(-18.98)">A</text></g></g><g class="cls-12"><g class="cls-6"><text class="cls-13" transform="matrix(-0.17, -0.99, 0.99, -0.17, 150.14, 243.26)">D</text></g></g><g class="cls-14"><g class="cls-6"><text class="cls-15" transform="matrix(0.31, -0.95, 0.95, 0.31, 149.03, 165.85)">X</text></g></g><g class="cls-16"><g class="cls-6"><text class="cls-17" transform="translate(162.28 133.27) rotate(-53.05)">T</text></g></g><g class="cls-18"><g class="cls-6"><text class="cls-19" transform="translate(214 85.89) rotate(-30)">R</text></g></g><g class="cls-20"><g class="cls-6"><text class="cls-21" transform="translate(261.95 72.95)">C</text></g></g><g class="cls-22"><g class="cls-6"><text class="cls-23" transform="translate(298.84 74.06) rotate(21.72)">O</text></g></g><g class="cls-24"><g class="cls-6"><text class="cls-25" transform="translate(341.28 91.9) rotate(45)">F</text></g></g><g class="cls-26"><g class="cls-6"><text class="cls-27" transform="translate(366.34 115.01) rotate(57.21)">F</text></g></g><g class="cls-28"><g class="cls-6"><text class="cls-29" transform="matrix(0.24, 0.97, -0.97, 0.24, 386.63, 143.76)">E</text></g></g><g class="cls-30"><g class="cls-6"><text class="cls-21" transform="translate(397.34 178.41) rotate(90)">E</text></g></g><g class="cls-31"><g class="cls-6"><text class="cls-32" transform="translate(397.62 215.82) rotate(110.51)">S</text></g></g></svg>